<svg width="24" height="24" viewBox="0 0 24 24" fill="none" xmlns="http://www.w3.org/2000/svg">
<path d="M14.5001 7.04595H12.0001V6.11795C12.0084 5.7115 11.8997 5.31123 11.687 4.9648C11.4742 4.61838 11.1664 4.34039 10.8001 4.16395C10.4751 4.01626 10.1138 3.96701 9.76108 4.02228C9.40832 4.07754 9.07948 4.23491 8.81514 4.47495L3.70614 8.96495C3.48187 9.17102 3.30282 9.42141 3.18035 9.70027C3.05787 9.97913 2.99463 10.2804 2.99463 10.5849C2.99463 10.8895 3.05787 11.1908 3.18035 11.4696C3.30282 11.7485 3.48187 11.9989 3.70614 12.2049L8.81514 16.6999C9.0798 16.9398 9.40887 17.0969 9.76177 17.152C10.1147 17.2071 10.476 17.1577 10.8011 17.0099C11.1679 16.8329 11.476 16.5541 11.6886 16.2067C11.9012 15.8593 12.0093 15.4581 12.0001 15.0509V14.1229H13.0001C13.5366 14.1298 14.0484 14.3492 14.4234 14.7329C14.7983 15.1167 15.0057 15.6335 15.0001 16.1699V18.9999C15.0002 19.1548 15.0362 19.3076 15.1053 19.4462C15.1744 19.5848 15.2748 19.7054 15.3985 19.7986C15.5223 19.8918 15.6659 19.9549 15.8182 19.9831C15.9705 20.0113 16.1273 20.0037 16.2761 19.9609C17.7885 19.514 19.0906 18.5397 19.9461 17.2149C20.8016 15.8901 21.1539 14.3025 20.9391 12.7401C20.7242 11.1778 19.9565 9.7442 18.7751 8.69948C17.5937 7.65476 16.077 7.0681 14.5001 7.04595Z" fill="#97999B"/>
</svg>
