<svg width="24" height="24" viewBox="0 0 24 24" fill="none" xmlns="http://www.w3.org/2000/svg">
<path d="M17.975 13H11V6.025C11.0001 5.88818 10.972 5.75279 10.9177 5.62723C10.8633 5.50166 10.7838 5.38859 10.684 5.295C10.5835 5.20202 10.4653 5.13034 10.3364 5.08428C10.2075 5.03822 10.0706 5.01874 9.93399 5.027C8.30383 5.13411 6.73907 5.70872 5.42701 6.68206C4.11495 7.65539 3.11117 8.98621 2.53583 10.5152C1.96049 12.0442 1.83797 13.7067 2.18292 15.3035C2.52787 16.9003 3.32568 18.3639 4.48087 19.5191C5.63605 20.6743 7.09965 21.4721 8.69649 21.8171C10.2933 22.162 11.9558 22.0395 13.4848 21.4642C15.0138 20.8888 16.3446 19.885 17.3179 18.573C18.2913 17.2609 18.8659 15.6962 18.973 14.066C18.982 13.9292 18.9629 13.7921 18.9167 13.663C18.8705 13.534 18.7983 13.4158 18.7045 13.3158C18.6107 13.2159 18.4974 13.1362 18.3716 13.0819C18.2457 13.0276 18.1101 12.9997 17.973 13H17.975Z" fill="#97999B"/>
<path d="M13.5 2C13.343 2 13.189 2.01 12.935 2.027C12.6824 2.04345 12.4454 2.15508 12.2719 2.33936C12.0984 2.52365 12.0012 2.76688 12 3.02V12H20.975C21.2293 12.0005 21.4743 11.9041 21.6601 11.7304C21.8458 11.5568 21.9585 11.3188 21.975 11.065C21.988 10.877 22.003 10.691 22.003 10.5C22.0003 8.24595 21.1035 6.08503 19.5094 4.49146C17.9153 2.89789 15.754 2.00185 13.5 2Z" fill="#97999B"/>
</svg>
