<svg width="24" height="25" viewBox="0 0 24 25" fill="none" xmlns="http://www.w3.org/2000/svg">
<path d="M12 8.125C16.4183 8.125 20 7.06168 20 5.75C20 4.43832 16.4183 3.375 12 3.375C7.58172 3.375 4 4.43832 4 5.75C4 7.06168 7.58172 8.125 12 8.125Z" fill="#015081"/>
<path d="M12 21.625C16.963 21.625 20 20.087 20 19.25V15.231C19.948 15.26 19.888 15.285 19.835 15.313C19.677 15.398 19.514 15.479 19.342 15.557C19.26 15.594 19.176 15.631 19.09 15.666C18.897 15.747 18.696 15.824 18.49 15.897C18.427 15.919 18.366 15.942 18.301 15.964C16.2609 16.5922 14.1355 16.8996 12.001 16.875C9.86648 16.8996 7.74112 16.5922 5.701 15.964C5.636 15.942 5.575 15.919 5.512 15.897C5.305 15.824 5.104 15.747 4.912 15.666C4.826 15.631 4.742 15.594 4.66 15.557C4.488 15.479 4.325 15.398 4.167 15.313C4.114 15.285 4.054 15.26 4.002 15.231V19.25C4 20.087 7.037 21.625 12 21.625Z" fill="#015081"/>
<path d="M19.09 8.916C18.897 8.997 18.696 9.074 18.49 9.147C18.427 9.169 18.366 9.192 18.301 9.214C16.2609 9.84225 14.1355 10.1496 12.001 10.125C9.86648 10.1496 7.74112 9.84225 5.701 9.214C5.636 9.192 5.575 9.169 5.512 9.147C5.305 9.074 5.104 8.997 4.912 8.916C4.826 8.881 4.742 8.844 4.66 8.807C4.488 8.729 4.325 8.648 4.167 8.563C4.112 8.535 4.052 8.51 4 8.481V12.5C4 13.337 7.037 14.875 12 14.875C16.963 14.875 20 13.337 20 12.5V8.481C19.948 8.51 19.888 8.535 19.835 8.563C19.677 8.648 19.514 8.729 19.342 8.807C19.26 8.844 19.176 8.881 19.09 8.916Z" fill="#015081"/>
</svg>
