<svg width="24" height="24" viewBox="0 0 24 24" fill="none" xmlns="http://www.w3.org/2000/svg">
<path d="M21.707 11.293L19.707 9.29303L12.707 2.29303C12.5195 2.10556 12.2651 2.00024 12 2.00024C11.7348 2.00024 11.4805 2.10556 11.293 2.29303L4.29298 9.29303L2.29298 11.293C2.11082 11.4816 2.01003 11.7342 2.01231 11.9964C2.01458 12.2586 2.11975 12.5094 2.30516 12.6948C2.49057 12.8803 2.74138 12.9854 3.00358 12.9877C3.26578 12.99 3.51838 12.8892 3.70698 12.707L3.99998 12.414V20C3.99998 20.5305 4.21069 21.0392 4.58577 21.4142C4.96084 21.7893 5.46955 22 5.99998 22H8.99998C9.2652 22 9.51955 21.8947 9.70709 21.7071C9.89462 21.5196 9.99998 21.2652 9.99998 21V17C9.99998 16.7348 10.1053 16.4805 10.2929 16.2929C10.4804 16.1054 10.7348 16 11 16H13C13.2652 16 13.5196 16.1054 13.7071 16.2929C13.8946 16.4805 14 16.7348 14 17V21C14 21.2652 14.1053 21.5196 14.2929 21.7071C14.4804 21.8947 14.7348 22 15 22H18C18.5304 22 19.0391 21.7893 19.4142 21.4142C19.7893 21.0392 20 20.5305 20 20V12.414L20.293 12.707C20.4816 12.8892 20.7342 12.99 20.9964 12.9877C21.2586 12.9854 21.5094 12.8803 21.6948 12.6948C21.8802 12.5094 21.9854 12.2586 21.9877 11.9964C21.9899 11.7342 21.8891 11.4816 21.707 11.293Z" fill="#2ABBC7"/>
</svg>
