<svg width="25" height="25" viewBox="0 0 25 25" fill="none" xmlns="http://www.w3.org/2000/svg">
<path d="M18.25 9.5H16.75V7C16.75 5.80653 16.2759 4.66193 15.432 3.81802C14.5881 2.97411 13.4435 2.5 12.25 2.5C11.0565 2.5 9.91193 2.97411 9.06802 3.81802C8.22411 4.66193 7.75 5.80653 7.75 7V9.5H6.25C5.71957 9.5 5.21086 9.71071 4.83579 10.0858C4.46071 10.4609 4.25 10.9696 4.25 11.5V20.5C4.25 21.0304 4.46071 21.5391 4.83579 21.9142C5.21086 22.2893 5.71957 22.5 6.25 22.5H18.25C18.7804 22.5 19.2891 22.2893 19.6642 21.9142C20.0393 21.5391 20.25 21.0304 20.25 20.5V11.5C20.25 10.9696 20.0393 10.4609 19.6642 10.0858C19.2891 9.71071 18.7804 9.5 18.25 9.5ZM13.25 17.5C13.25 17.7652 13.1446 18.0196 12.9571 18.2071C12.7696 18.3946 12.5152 18.5 12.25 18.5C11.9848 18.5 11.7304 18.3946 11.5429 18.2071C11.3554 18.0196 11.25 17.7652 11.25 17.5V14.5C11.25 14.2348 11.3554 13.9804 11.5429 13.7929C11.7304 13.6054 11.9848 13.5 12.25 13.5C12.5152 13.5 12.7696 13.6054 12.9571 13.7929C13.1446 13.9804 13.25 14.2348 13.25 14.5V17.5ZM14.75 9.5H9.75V7C9.75 6.33696 10.0134 5.70107 10.4822 5.23223C10.9511 4.76339 11.587 4.5 12.25 4.5C12.913 4.5 13.5489 4.76339 14.0178 5.23223C14.4866 5.70107 14.75 6.33696 14.75 7V9.5Z" fill="#CDCDCD"/>
</svg>
