<svg width="24" height="25" viewBox="0 0 24 25" fill="none" xmlns="http://www.w3.org/2000/svg">
<path d="M20 11.5H13V4.5C13 4.23478 12.8946 3.98043 12.7071 3.79289C12.5196 3.60536 12.2652 3.5 12 3.5C11.7348 3.5 11.4804 3.60536 11.2929 3.79289C11.1054 3.98043 11 4.23478 11 4.5V11.5H4C3.73478 11.5 3.48043 11.6054 3.29289 11.7929C3.10536 11.9804 3 12.2348 3 12.5C3 12.7652 3.10536 13.0196 3.29289 13.2071C3.48043 13.3946 3.73478 13.5 4 13.5H11V20.5C11 20.7652 11.1054 21.0196 11.2929 21.2071C11.4804 21.3946 11.7348 21.5 12 21.5C12.2652 21.5 12.5196 21.3946 12.7071 21.2071C12.8946 21.0196 13 20.7652 13 20.5V13.5H20C20.2652 13.5 20.5196 13.3946 20.7071 13.2071C20.8946 13.0196 21 12.7652 21 12.5C21 12.2348 20.8946 11.9804 20.7071 11.7929C20.5196 11.6054 20.2652 11.5 20 11.5Z" fill="white"/>
</svg>
