<svg width="25" height="25" viewBox="0 0 25 25" fill="none" xmlns="http://www.w3.org/2000/svg">
<path d="M10.5 18C14.6421 18 18 14.6421 18 10.5C18 6.35786 14.6421 3 10.5 3C6.35786 3 3 6.35786 3 10.5C3 14.6421 6.35786 18 10.5 18Z" fill="#CDCDCD"/>
<path d="M22.207 20.793L18.207 16.793C18.0184 16.6108 17.7658 16.51 17.5036 16.5123C17.2414 16.5146 16.9906 16.6198 16.8052 16.8052C16.6198 16.9906 16.5146 17.2414 16.5123 17.5036C16.51 17.7658 16.6108 18.0184 16.793 18.207L20.793 22.207C20.9816 22.3892 21.2342 22.49 21.4964 22.4877C21.7586 22.4854 22.0094 22.3802 22.1948 22.1948C22.3802 22.0094 22.4854 21.7586 22.4877 21.4964C22.49 21.2342 22.3892 20.9816 22.207 20.793Z" fill="#CDCDCD"/>
</svg>
