<svg width="24" height="24" viewBox="0 0 24 24" fill="none" xmlns="http://www.w3.org/2000/svg">
<path d="M20 19H4C3.46957 19 2.96086 18.7893 2.58579 18.4142C2.21071 18.0391 2 17.5304 2 17V14.5C2 14.2348 2.10536 13.9804 2.29289 13.7929C2.48043 13.6054 2.73478 13.5 3 13.5C3.39782 13.5 3.77936 13.342 4.06066 13.0607C4.34196 12.7794 4.5 12.3978 4.5 12C4.5 11.6022 4.34196 11.2206 4.06066 10.9393C3.77936 10.658 3.39782 10.5 3 10.5C2.73478 10.5 2.48043 10.3946 2.29289 10.2071C2.10536 10.0196 2 9.76522 2 9.5V7C2 6.46957 2.21071 5.96086 2.58579 5.58579C2.96086 5.21071 3.46957 5 4 5H20C20.5304 5 21.0391 5.21071 21.4142 5.58579C21.7893 5.96086 22 6.46957 22 7V9.5C22 9.76522 21.8946 10.0196 21.7071 10.2071C21.5196 10.3946 21.2652 10.5 21 10.5C20.6022 10.5 20.2206 10.658 19.9393 10.9393C19.658 11.2206 19.5 11.6022 19.5 12C19.5 12.3978 19.658 12.7794 19.9393 13.0607C20.2206 13.342 20.6022 13.5 21 13.5C21.2652 13.5 21.5196 13.6054 21.7071 13.7929C21.8946 13.9804 22 14.2348 22 14.5V17C22 17.5304 21.7893 18.0391 21.4142 18.4142C21.0391 18.7893 20.5304 19 20 19Z" fill="#97999B"/>
</svg>
