<svg width="25" height="25" viewBox="0 0 25 25" fill="none" xmlns="http://www.w3.org/2000/svg">
<path d="M12.25 12.5C14.7353 12.5 16.75 10.4853 16.75 8C16.75 5.51472 14.7353 3.5 12.25 3.5C9.76472 3.5 7.75 5.51472 7.75 8C7.75 10.4853 9.76472 12.5 12.25 12.5Z" fill="#CDCDCD"/>
<path d="M14.25 13.5H10.25C8.92441 13.5016 7.65356 14.0289 6.71622 14.9662C5.77888 15.9036 5.25159 17.1744 5.25 18.5V20.5C5.25 20.7652 5.35536 21.0196 5.54289 21.2071C5.73043 21.3946 5.98478 21.5 6.25 21.5H18.25C18.5152 21.5 18.7696 21.3946 18.9571 21.2071C19.1446 21.0196 19.25 20.7652 19.25 20.5V18.5C19.2484 17.1744 18.7211 15.9036 17.7838 14.9662C16.8464 14.0289 15.5756 13.5016 14.25 13.5Z" fill="#CDCDCD"/>
</svg>
