<svg width="21" height="20" viewBox="0 0 21 20" fill="none" xmlns="http://www.w3.org/2000/svg">
<path d="M11.6783 9.99982L16.0891 5.58899C16.1687 5.51212 16.2322 5.42016 16.2759 5.31849C16.3195 5.21682 16.3425 5.10747 16.3435 4.99682C16.3444 4.88618 16.3234 4.77644 16.2815 4.67403C16.2396 4.57161 16.1777 4.47857 16.0994 4.40033C16.0212 4.32208 15.9282 4.26021 15.8257 4.21831C15.7233 4.1764 15.6136 4.15532 15.5029 4.15628C15.3923 4.15724 15.2829 4.18023 15.1813 4.22391C15.0796 4.26758 14.9877 4.33107 14.9108 4.41066L10.4999 8.82149L6.08911 4.41066C5.93194 4.25886 5.72144 4.17486 5.50294 4.17676C5.28445 4.17866 5.07544 4.2663 4.92093 4.42081C4.76642 4.57531 4.67878 4.78433 4.67688 5.00282C4.67499 5.22132 4.75898 5.43182 4.91078 5.58899L9.32161 9.99982L4.91078 14.4107C4.83119 14.4875 4.7677 14.5795 4.72403 14.6812C4.68035 14.7828 4.65737 14.8922 4.6564 15.0028C4.65544 15.1135 4.67653 15.2232 4.71843 15.3256C4.76033 15.428 4.82221 15.5211 4.90045 15.5993C4.97869 15.6776 5.07174 15.7394 5.17415 15.7813C5.27656 15.8232 5.3863 15.8443 5.49695 15.8434C5.6076 15.8424 5.71695 15.8194 5.81862 15.7757C5.92029 15.7321 6.01224 15.6686 6.08911 15.589L10.4999 11.1782L14.9108 15.589C15.0679 15.7408 15.2784 15.8248 15.4969 15.8229C15.7154 15.821 15.9245 15.7333 16.079 15.5788C16.2335 15.4243 16.3211 15.2153 16.323 14.9968C16.3249 14.7783 16.2409 14.5678 16.0891 14.4107L11.6783 9.99982Z" fill="#2F2F38"/>
</svg>
